<svg xmlns="http://www.w3.org/2000/svg" viewBox="0 0 64 64" aria-hidden="true">
  <rect width="64" height="64" rx="14" fill="#658086"/>
  <g transform="rotate(32 32 34)" stroke="#ffffff" stroke-width="2.2" stroke-linecap="round" stroke-linejoin="round" fill="none">
    <path d="M22 26 L22 52 Q22 56 26 56 L42 56 Q46 56 46 52 L46 26"/>
    <path d="M22 26 Q22 22 26 22 L42 22 Q46 22 46 26"/>
    <path d="M24 18 L44 18"/>
    <path d="M26 10 Q26 7 29 7 L39 7 Q42 7 42 10 L42 18 L26 18 Z"/>
    <circle cx="30" cy="12" r="0.9" fill="#ffffff" stroke="none"/>
    <circle cx="34" cy="10.5" r="0.9" fill="#ffffff" stroke="none"/>
    <circle cx="38" cy="12" r="0.9" fill="#ffffff" stroke="none"/>
    <circle cx="32" cy="14.5" r="0.9" fill="#ffffff" stroke="none"/>
    <circle cx="36" cy="14.5" r="0.9" fill="#ffffff" stroke="none"/>
  </g>
  <circle cx="50" cy="14" r="1.4" fill="#ffffff"/>
  <circle cx="54" cy="8" r="1.1" fill="#ffffff"/>
  <circle cx="46" cy="8" r="0.9" fill="#ffffff"/>
</svg>
